<svg width="622" height="198" viewBox="0 0 622 198" fill="none" xmlns="http://www.w3.org/2000/svg">
<path d="M241.033 124.913C241.102 61.8926 241.148 55.5741 241.495 53.3192C243.74 38.9442 249.272 28.0924 259.641 17.8279C267.001 10.5229 275.171 5.51983 284.244 2.70119C285.332 2.37235 286.536 1.99653 286.906 1.87909C287.299 1.76165 288.48 1.50327 289.568 1.29188C296.002 0.0704659 297.9 -0.0704659 304.265 0.0704659C309.496 0.211398 310.583 0.305352 314.333 0.916057C322.734 2.32538 331.483 6.13054 338.982 11.6034C339.862 12.2376 340.649 12.8483 340.718 12.9188C340.788 12.9892 341.366 13.459 341.991 13.9757C345 16.3716 350.74 22.5021 353.471 26.1898C359.35 34.1995 363.493 44.7694 364.442 54.2588C365.437 64.171 364.604 73.2376 361.965 81.5056C360.229 86.9315 356.619 94.072 353.749 97.7128C353.61 97.9007 352.823 98.9107 352.036 99.9442C350.185 102.34 345.81 106.897 343.264 109.058C342.176 109.997 341.251 110.796 341.181 110.866C341.112 110.937 340.348 111.548 339.445 112.205C334.122 116.151 327.641 119.487 321.971 121.201C321.022 121.483 319.98 121.812 319.656 121.93C319.147 122.094 316.879 122.564 311.671 123.574C310.444 123.809 305.491 123.926 291.188 124.02L272.325 124.137L272.186 147.274L272.07 170.41L271.376 172.994C268.714 182.836 261.122 190.422 251.494 192.842C248.508 193.57 245.361 194.016 243 194.016H240.94L241.033 124.913ZM306.903 93.4613C314.402 92.1929 319.471 89.5622 324.494 84.3477C328.752 79.9084 331.275 75.1167 332.895 68.352C333.312 66.6138 333.312 57.6881 332.895 55.903C331.576 50.2187 330.118 46.8833 327.132 42.7963C323.498 37.8167 317.828 33.5653 312.319 31.7566C309.148 30.6997 307.25 30.4413 302.645 30.4648C297.877 30.4648 295.909 30.7701 292.322 32.0855C284.059 35.092 276.606 42.9607 273.852 51.6046C272.301 56.4667 272.232 57.6411 272.209 77.2307V93.7197H288.781C299.798 93.7197 305.885 93.6257 306.903 93.4613ZM0.0694351 89.2334C0.13887 61.9631 0.208305 54.0709 0.439756 52.9669C0.601771 52.1918 0.902657 50.759 1.08782 49.7959C2.52281 42.1856 4.72159 36.4779 8.67939 29.995C11.1096 26.0254 13.6556 22.8075 17.4977 18.8849C24.0477 12.1671 29.2553 8.50289 37.6338 4.69773C42.124 2.63073 47.4473 1.29188 55.1778 0.234886C56.335 0.0939546 67.0743 0 85.4747 0H113.966L113.804 2.93608C113.434 9.55988 111.744 15.0562 108.689 19.3781C107.532 21.0223 105.171 23.5356 103.829 24.5456C103.319 24.9215 102.857 25.3208 102.787 25.3912C102.718 25.4852 101.838 26.0489 100.843 26.6596C98.621 27.9985 96.214 28.985 93.5523 29.6427C91.6312 30.1359 90.9137 30.1594 74.4345 30.3004C56.0573 30.4883 57.1683 30.4178 52.5624 31.6627C49.6924 32.4378 45.5726 34.7632 42.7258 37.206C37.1015 42.0447 33.514 47.8229 31.9402 54.6111C31.269 57.4767 31.1995 59.1914 31.0606 79.744C30.8986 101.025 30.8986 101.119 30.3894 102.88C28.7461 108.4 26.7325 111.876 22.8904 115.776C21.224 117.467 17.6828 120.027 15.8775 120.826C15.3683 121.037 14.7434 121.319 14.4888 121.436C11.8966 122.634 6.85093 123.738 2.96257 123.926L0 124.091L0.0694351 89.2334ZM161.228 123.879C148.313 122.869 135.746 117.443 126.002 108.705C122.553 105.605 117.623 100.132 115.748 97.337C114.128 94.9176 113.04 93.2029 112.554 92.3104C111.675 90.7132 109.499 86.2503 109.499 86.0859C109.499 85.9919 109.337 85.5457 109.129 85.0759C108.435 83.4787 108.365 83.2673 107.671 81.0358C106.722 77.9588 106.097 75.0697 105.287 69.9962C104.893 67.5299 104.916 56.8425 105.31 54.2588C106.189 48.5041 107.624 42.6789 108.782 40.0481C109.013 39.5314 109.291 38.8502 109.383 38.5214C109.569 37.8872 111.582 33.7297 112.624 31.8271C116.211 25.2033 123.456 17.0762 130.561 11.6973C135.838 7.70428 143.222 4.01656 149.309 2.34886C149.887 2.18444 150.605 1.97305 150.929 1.8556C151.253 1.76165 152.387 1.50327 153.475 1.29188C160.025 0.0704659 161.807 -0.0704659 168.172 0.0704659C171.227 0.164421 174.352 0.305352 175.115 0.422796C178.657 0.963035 180.045 1.19792 180.855 1.40932C181.318 1.55025 182.105 1.73816 182.591 1.87909C192.127 4.3454 201.107 9.34848 208.583 16.3716C219.022 26.1664 225.248 37.1356 227.632 49.9134C228.719 55.809 228.696 55.1044 228.696 90.3843V124.02L195.437 123.973C177.129 123.95 161.738 123.903 161.228 123.879ZM197.219 76.526C197.196 57.2888 197.15 56.3258 195.691 51.722C192.845 42.7258 184.79 34.4813 176.157 31.7332C170.972 30.0655 164.33 29.901 158.844 31.2634C148.823 33.7767 139.588 43.2661 137.204 53.5541C136.996 54.3997 136.718 55.6681 136.533 56.3728C136.093 58.2753 136.162 66.3554 136.648 68.352C137.62 72.4155 137.898 73.2376 139.148 76.0093C141.416 81.0358 147.388 87.4247 152.318 90.1259C154.239 91.1829 156.947 92.2634 158.729 92.6862C162.478 93.6023 163.404 93.6492 180.508 93.6962L197.219 93.7197V76.526Z" fill="white"/>
<path d="M50.1322 76.7139C47.4011 76.1737 44.7162 74.5765 42.5637 72.2511C38.0042 67.2715 37.4024 59.4733 41.1519 53.6246C43.3738 50.1483 47.3085 47.494 51.0117 47.0008C52.1921 46.8364 60.4549 46.7424 74.2262 46.7424H95.6122V48.2692C95.6122 52.0039 94.7558 56.866 93.506 60.2719C90.3351 68.8217 82.4195 75.3516 73.5087 76.7139C70.7775 77.1367 52.2152 77.1367 50.1322 76.7139Z" fill="white"/>
<path d="M429.595 123.879C427.026 123.691 422.004 122.846 419.18 122.117C412.051 120.238 405.941 117.373 399.854 113.027C398.326 111.947 397.03 110.984 396.961 110.89C396.891 110.819 396.22 110.232 395.456 109.575C393.211 107.672 389.415 103.867 387.633 101.706C386.707 100.602 385.92 99.6623 385.851 99.5919C385.596 99.3805 382.912 95.4814 382.102 94.1895C379.347 89.7971 376.176 82.2572 375.204 77.7474C375.042 77.0428 374.834 76.0328 374.718 75.516C373.584 70.3015 373.191 63.9596 373.561 57.5472C373.7 55.1044 373.931 52.5441 374.07 51.8629C374.186 51.1818 374.394 50.1483 374.51 49.561C376.5 39.32 380.944 30.1359 387.703 22.1968C388.952 20.717 393.697 15.9723 395.202 14.6804C401.52 9.23104 410.084 4.46284 417.097 2.4898C421.356 1.29188 421.818 1.22141 428.484 0.234886C429.41 0.0939546 441.353 0 458.619 0H487.226V2.23142C487.226 5.73123 486.694 8.83173 485.421 12.6839C482.713 20.9754 475.955 27.2703 467.368 29.5252L464.891 30.1594L447.88 30.3004C432.882 30.4413 430.66 30.5118 429.017 30.8641C423.045 32.2029 418.462 34.7867 413.833 39.4609C407.654 45.7089 404.599 53.2488 404.599 62.2449C404.599 69.7143 406.774 76.1032 411.195 81.7405C413.787 85.0524 417.93 88.6462 421.008 90.2669C422.721 91.1829 425.499 92.2869 427.142 92.6862C430.845 93.6023 432.373 93.7197 440.52 93.7197C450.842 93.7197 452.787 94.0251 457.832 96.3739C459.406 97.1021 463.063 99.7798 464.59 101.283C466.697 103.397 467.947 105.088 469.266 107.625C471.233 111.43 472.622 117.279 472.645 121.859V124.02L451.652 123.973C440.08 123.95 430.174 123.903 429.595 123.879ZM481.301 120.802C481.579 114.906 483.06 109.739 485.676 105.581C488.314 101.377 493.267 97.2665 497.757 95.5518C501.669 94.0486 503.914 93.7197 510.024 93.7197C517.593 93.6962 521.064 92.8506 525.531 89.8676C527.152 88.7871 530.785 85.1698 531.85 83.5961C533.192 81.5761 534.651 78.3346 535.275 75.9858L535.9 73.6369L536.086 58.3693C536.178 49.9838 536.317 42.7259 536.41 42.2796C537.428 36.3369 538.516 32.6257 540.576 28.2568C541.617 26.0489 543.955 22.0324 545.02 20.67C547.704 17.1702 551.708 12.9892 554.532 10.7343C557.934 7.98614 561.939 5.49634 565.318 4.08702C566.082 3.75818 567.054 3.33539 567.424 3.17097C568.072 2.8891 571.011 1.92607 572.863 1.40932C573.719 1.17443 576.566 0.657682 579.274 0.258375C580.362 0.0939546 588.139 0 601.47 0H622L621.861 3.00655C621.514 10.2645 619.246 16.5595 615.288 21.1163C611.7 25.2973 607.048 28.1864 601.91 29.4783C599.596 30.0655 598.762 30.1359 592.768 30.3238C586.125 30.5118 585.847 30.5587 582.376 31.6157C581.149 31.9915 578.233 33.5888 576.913 34.5988C572.747 37.7932 569.368 42.5145 568.026 46.9773C567.91 47.4236 567.655 48.1752 567.493 48.6215C567.285 49.2087 567.169 53.4367 567.054 64.124C566.892 79.5561 566.845 80.3547 565.688 86.3208C565.41 87.7536 564.091 91.9815 563.443 93.4848C562.031 96.7262 559.161 101.941 558.189 103.021C558.05 103.186 557.425 103.984 556.777 104.83C555.226 106.897 549.811 112.276 547.519 114.061C541.895 118.359 535.507 121.436 529.466 122.752C524.05 123.926 525.508 123.856 502.641 123.95L481.139 124.044L481.301 120.802Z" fill="white"/>
<path d="M424.503 76.8783C421.194 76.3616 418.948 75.1872 416.495 72.6974C414.875 71.0532 414.366 70.3485 413.648 68.7748C413.162 67.6943 412.653 66.3319 412.491 65.7212C412.121 64.1475 412.167 59.7081 412.584 58.0874C413.764 53.4132 417.675 49.1383 422.304 47.4706C424.11 46.8129 426.702 46.7424 447.509 46.7424H469.011L468.872 50.1013C468.664 55.0809 467.738 58.8626 465.678 62.9966C462.901 68.5869 457.138 73.6604 451.352 75.61C448.736 76.5025 448.505 76.5495 446.491 76.8079C444.686 77.0193 425.869 77.0897 424.503 76.8783Z" fill="white"/>
<path d="M374.417 197.633C373.862 197.093 373.978 196.835 374.741 196.835C375.135 196.835 375.436 196.952 375.436 197.07C375.436 197.211 375.552 197.305 375.667 197.305C375.806 197.305 375.899 196.952 375.899 196.506C375.899 195.707 375.876 195.684 375.089 195.825C374.325 195.942 374.279 195.919 374.279 195.261C374.279 194.627 374.186 194.509 373.237 194.251C371.871 193.875 370.645 192.489 370.46 191.104C370.367 190.587 370.344 186.641 370.39 182.366L370.46 174.591L371.131 173.722C372.033 172.524 373.075 172.101 375.204 172.101C378.746 172.125 380.065 173.581 380.065 177.457V179.453H376.824V177.621C376.824 175.484 376.524 174.99 375.158 174.99C373.584 174.99 373.584 174.967 373.584 183.188C373.584 187.792 373.677 190.704 373.816 190.986C374.001 191.315 374.302 191.432 375.065 191.432C376.524 191.432 376.824 190.986 376.824 188.778V186.97H380.065V189.037C380.042 192.677 379.324 193.593 375.737 194.627C375.112 194.791 375.459 195.191 376.223 195.191C377.102 195.191 377.287 195.473 377.287 196.717C377.287 197.281 377.149 197.61 376.848 197.774C376.176 198.127 374.834 198.056 374.417 197.633ZM331.275 193.969C329.099 192.889 328.914 192.114 328.914 183.211C328.914 174.497 329.099 173.628 331.067 172.595C331.831 172.195 332.432 172.101 333.89 172.101C336.668 172.101 338.242 173.111 338.519 175.108C338.612 175.625 338.635 179.641 338.589 184.034C338.519 191.855 338.519 192.043 338.01 192.748C336.83 194.416 333.451 195.05 331.275 193.969ZM335.117 191.151C335.511 190.751 335.511 175.672 335.117 175.272C334.955 175.108 334.4 174.99 333.867 174.99C332.155 174.99 332.155 174.99 332.155 183.211C332.155 191.432 332.155 191.432 333.867 191.432C334.4 191.432 334.955 191.315 335.117 191.151ZM401.219 194.181C400.108 193.758 399.345 193.077 398.928 192.161C398.604 191.432 398.581 190.235 398.627 182.953L398.697 174.591L399.275 173.746C400.085 172.548 401.289 172.054 403.441 172.078C405.663 172.101 407.029 172.759 407.723 174.168C408.14 175.037 408.186 175.672 408.255 182.46C408.348 192.09 408.186 192.889 405.872 193.993C404.691 194.556 402.446 194.65 401.219 194.181ZM404.691 190.916C405.015 190.469 405.061 189.318 405.061 183.211C405.061 174.99 405.061 174.99 403.349 174.99C402.816 174.99 402.261 175.108 402.099 175.272C401.705 175.672 401.705 190.751 402.099 191.151C402.261 191.315 402.816 191.432 403.349 191.432C404.113 191.432 404.437 191.315 404.691 190.916ZM435.844 193.922C433.599 192.771 433.437 191.926 433.576 181.685C433.646 175.014 433.646 174.849 434.201 173.98C435.011 172.642 436.261 172.078 438.506 172.101C440.473 172.101 441.353 172.407 442.256 173.393C443.204 174.403 443.251 174.967 443.251 183.258C443.251 190.892 443.228 191.339 442.765 192.278C441.793 194.345 438.251 195.191 435.844 193.922ZM439.779 190.986C439.918 190.681 440.01 187.768 440.01 183.117C440.01 174.849 440.034 174.99 438.39 174.99C436.77 174.99 436.77 175.061 436.77 183.211C436.77 191.479 436.77 191.432 438.506 191.432C439.293 191.432 439.594 191.315 439.779 190.986ZM469.868 194.087C468.016 193.288 467.322 191.902 467.322 188.943V186.97H470.562V188.802C470.562 190.963 470.863 191.432 472.298 191.432C473.548 191.432 473.779 190.986 473.802 188.731C473.802 186.382 473.455 185.748 471.326 184.221C468.132 181.896 467.322 180.557 467.322 177.48C467.322 173.581 468.641 172.125 472.182 172.101C474.288 172.101 475.353 172.524 476.256 173.699C476.857 174.521 476.927 174.779 476.996 177.01L477.089 179.453H473.802V177.621C473.802 175.484 473.501 174.99 472.136 174.99C470.932 174.99 470.562 175.554 470.562 177.363C470.562 179.312 470.955 179.97 473.27 181.755C476.649 184.386 477.043 185.091 477.043 188.543C477.043 189.812 476.927 191.221 476.811 191.667C476.533 192.677 475.376 193.852 474.288 194.228C473.2 194.58 470.84 194.509 469.868 194.087ZM538.747 194.016C536.502 192.865 536.525 192.983 536.525 183.164C536.525 175.084 536.525 174.92 537.035 174.004C537.798 172.618 538.979 172.101 541.27 172.078C543.492 172.078 544.742 172.665 545.529 174.051C545.992 174.896 546.015 175.225 546.015 183.164C546.015 192.02 545.992 192.208 544.811 193.335C543.538 194.533 540.46 194.885 538.747 194.016ZM542.497 191.151C542.867 190.775 542.89 176.118 542.543 175.437C542.358 175.108 542.057 174.99 541.316 174.99C540.761 174.99 540.205 175.108 540.043 175.272C539.65 175.672 539.65 190.751 540.043 191.151C540.205 191.315 540.738 191.432 541.27 191.432C541.802 191.432 542.335 191.315 542.497 191.151ZM560.596 194.322C559.3 193.852 558.675 193.382 558.166 192.489C557.657 191.62 557.587 191.221 557.587 189.248V186.97H560.828V188.919C560.828 190.117 560.943 190.986 561.105 191.151C561.267 191.315 561.823 191.432 562.355 191.432C563.119 191.432 563.443 191.315 563.698 190.916C564.184 190.235 564.184 187.416 563.744 186.547C563.327 185.748 561.962 184.456 560.573 183.493C558.259 181.92 557.587 180.557 557.587 177.433C557.587 175.084 557.796 174.239 558.583 173.393C559.485 172.407 560.365 172.101 562.332 172.101C565.85 172.078 567.007 173.252 567.239 177.128L567.378 179.453H564.068V177.739C564.068 175.531 563.721 174.99 562.355 174.99C561.823 174.99 561.267 175.108 561.105 175.272C560.943 175.437 560.828 176.282 560.828 177.457V179.359L561.939 180.416C562.54 181.004 563.628 181.943 564.369 182.483C566.845 184.315 567.563 186.288 567.193 190.164C567.007 192.255 566.475 193.171 564.994 193.922C564.207 194.345 563.582 194.463 562.448 194.463C561.615 194.463 560.781 194.392 560.596 194.322ZM614.177 194.063C612.973 193.476 612.325 192.724 612.001 191.55C611.839 190.963 611.747 187.815 611.747 183.211C611.747 175.46 611.862 174.356 612.742 173.393C613.645 172.407 614.501 172.101 616.491 172.101C618.042 172.078 618.528 172.172 619.385 172.642C619.94 172.97 620.611 173.605 620.866 174.051C621.329 174.849 621.352 175.225 621.352 183.211C621.352 192.63 621.375 192.513 619.57 193.734C618.297 194.58 615.612 194.744 614.177 194.063ZM617.857 190.916C618.181 190.469 618.227 189.318 618.227 183.211C618.227 175.037 618.227 174.99 616.607 174.99C614.987 174.99 614.987 175.037 614.987 183.376C614.987 191.573 614.964 191.432 616.607 191.432C617.278 191.432 617.602 191.292 617.857 190.916ZM287.253 172.407H295.817V175.225H290.262V181.802H295.122V184.621H290.262V191.198H295.817V194.016H287.253V172.407ZM307.158 172.407H310.398V194.016H307.158V172.407ZM315.027 172.383L316.694 172.454C318.337 172.524 318.36 172.524 318.522 173.229C318.615 173.628 319.054 175.413 319.541 177.222C320.003 179.03 320.605 181.403 320.883 182.507C321.138 183.611 321.438 184.597 321.554 184.738C321.647 184.856 321.739 182.131 321.739 178.678V172.407H324.748V194.016H321.392L320.397 189.953C318.638 182.836 318.43 182.037 318.221 182.037C318.129 182.037 318.036 184.738 318.036 188.027V194.016H315.027V172.383ZM345.232 192.912C345.139 192.278 344.977 191.268 344.861 190.61C344.745 189.976 344.491 188.496 344.306 187.322C343.542 182.906 343.449 182.366 343.241 181.332C343.125 180.745 342.94 179.43 342.801 178.396C342.454 175.625 342.107 173.276 341.968 172.829C341.852 172.454 342.038 172.407 343.473 172.407C345.324 172.407 345.185 172.266 345.602 174.99C346.273 179.688 346.667 182.601 347.199 186.5C347.315 187.463 347.5 188.449 347.592 188.731C347.754 189.225 347.824 188.943 348.333 185.443C348.472 184.55 348.68 183.117 348.819 182.272C348.958 181.426 349.212 179.594 349.398 178.161C349.583 176.752 349.768 175.272 349.837 174.873C349.907 174.497 350.023 173.769 350.092 173.299L350.231 172.407H353.448L353.332 173.299C352.684 178.185 352.406 180.087 352.059 181.92C351.92 182.695 351.666 184.221 351.481 185.325C351.296 186.429 351.041 187.956 350.902 188.731C350.763 189.506 350.555 190.728 350.439 191.432C350.347 192.137 350.185 193.006 350.092 193.382L349.93 194.016H345.37L345.232 192.912ZM355.531 193.828C355.531 193.218 356.457 186.805 356.92 184.268C357.059 183.493 357.313 181.967 357.498 180.863C357.684 179.759 357.938 178.232 358.077 177.457C358.216 176.682 358.424 175.413 358.563 174.638C358.957 172.242 358.748 172.407 361.202 172.407C363.123 172.407 363.377 172.454 363.516 172.853C363.586 173.088 363.91 174.873 364.234 176.776C364.558 178.702 364.905 180.816 365.021 181.45C365.391 183.564 366.132 188.215 366.409 190.258C366.548 191.362 366.756 192.654 366.872 193.147L367.057 194.016H363.655L363.516 192.677C363.447 191.926 363.308 190.939 363.215 190.493L363.03 189.671H359.373L359.211 190.493C359.119 190.939 358.98 191.926 358.887 192.677L358.748 194.016H357.128C356.249 194.016 355.531 193.922 355.531 193.828ZM362.382 184.926C362.243 183.376 362.127 182.695 361.526 178.983C361.155 176.799 361.202 176.611 360.16 183.775C360.021 184.668 359.859 185.631 359.79 185.936C359.651 186.476 359.697 186.5 361.086 186.5H362.544L362.382 184.926ZM383.537 193.57C383.537 193.312 383.629 192.607 383.768 191.973C383.884 191.362 384.092 190.117 384.231 189.201C384.509 187.298 385.319 182.225 385.62 180.51C385.735 179.876 386.036 178.02 386.314 176.4C386.569 174.779 386.846 173.229 386.916 172.947C387.008 172.43 387.124 172.407 389.277 172.407H391.545L391.961 174.943C392.193 176.329 392.471 177.927 392.586 178.514C393.119 181.45 393.998 186.805 394.183 188.144C394.322 188.99 394.507 190.352 394.646 191.198C394.762 192.043 394.878 193.006 394.878 193.382C394.878 194.016 394.878 194.016 393.281 194.016H391.707L391.545 192.489C391.452 191.644 391.336 190.634 391.244 190.258L391.128 189.553H387.24V190.282C387.24 190.704 387.124 191.691 386.962 192.513L386.707 194.016H385.11C383.722 194.016 383.537 193.969 383.537 193.57ZM390.573 185.631C390.503 185.138 390.364 184.151 390.249 183.446C390.133 182.742 389.925 181.262 389.786 180.158C389.508 178.067 389.346 177.245 389.184 177.386C389.115 177.48 388.513 181.661 388.05 185.278L387.888 186.5H390.688L390.573 185.631ZM419.874 172.36L423.415 172.454C427.42 172.548 428.021 172.736 428.947 174.215C429.48 175.108 429.479 175.108 429.479 183.211C429.479 191.315 429.48 191.315 428.924 192.208C427.998 193.734 427.119 194.016 423.23 194.016H419.874V172.36ZM426.054 190.587C426.494 189.976 426.401 176.118 425.961 175.672C425.799 175.507 425.105 175.343 424.388 175.272L423.115 175.178V191.245L424.411 191.151C425.36 191.057 425.823 190.916 426.054 190.587ZM454.823 172.407H463.618V175.202L458.179 175.343V181.685L462.924 181.826V184.597L458.179 184.738L458.04 191.198H463.618V194.016H454.823V172.407ZM481.44 172.36L484.866 172.454C488.708 172.524 489.356 172.759 490.143 174.239C490.513 174.943 490.582 175.578 490.582 178.514C490.582 181.896 490.559 181.967 489.958 182.789C489.124 183.916 487.55 184.621 485.953 184.621H484.68V194.016H481.44V172.36ZM487.111 181.332C487.388 181.097 487.458 180.463 487.458 178.49C487.458 176.141 487.412 175.93 486.949 175.601C486.671 175.39 486.046 175.225 485.56 175.225H484.68V181.873L485.722 181.755C486.301 181.685 486.926 181.497 487.111 181.332ZM494.864 172.407H497.873V194.016H494.864V172.407ZM502.502 172.407H505.604C509.77 172.407 510.695 172.759 511.552 174.638C512.107 175.86 512.177 180.604 511.644 181.873C511.32 182.671 510.487 183.423 509.631 183.752C509.237 183.893 509.237 183.987 509.7 185.138C509.978 185.819 510.371 186.923 510.603 187.557C510.834 188.215 511.112 188.99 511.251 189.318C511.644 190.282 512.917 193.758 512.917 193.899C512.917 193.969 512.154 194.016 511.228 194.016H509.538L508.335 190.329C507.687 188.285 507.015 186.171 506.853 185.631C506.691 185.067 506.414 184.621 506.275 184.621C506.043 184.621 505.974 185.701 505.974 189.318V194.016H502.502V172.407ZM508.427 181.144C508.636 180.886 508.728 179.97 508.751 178.349C508.751 176.141 508.705 175.93 508.242 175.601C507.964 175.39 507.339 175.225 506.853 175.225H505.974V181.873L507.039 181.708C507.663 181.638 508.265 181.379 508.427 181.144ZM516.621 172.407H519.629V194.016H516.621V172.407ZM526.573 175.225H523.333V172.407H533.054V175.225H529.813V194.016H526.573V175.225ZM570.618 192.912C570.711 192.278 570.873 191.104 571.011 190.258C571.15 189.412 571.405 187.674 571.59 186.382C571.775 185.091 572.03 183.564 572.146 182.977C572.238 182.389 572.562 180.487 572.84 178.749C573.118 177.01 573.442 175.131 573.557 174.591C573.696 174.051 573.789 173.323 573.789 172.994V172.383L578.534 172.524L578.696 173.581C578.788 174.168 578.973 175.249 579.089 176C579.737 179.524 579.853 180.181 580.177 182.154C580.362 183.329 580.617 184.903 580.756 185.678C580.871 186.453 581.08 187.768 581.195 188.614C581.334 189.459 581.519 190.822 581.658 191.667C582.029 194.157 582.098 194.016 580.316 194.016H578.742L578.464 192.372C578.302 191.456 578.186 190.446 578.186 190.141C578.186 189.553 578.163 189.553 576.265 189.553H574.344L573.696 194.016H570.479L570.618 192.912ZM577.492 185.678C577.492 185.255 577.399 184.362 577.284 183.752C577.168 183.141 576.937 181.779 576.798 180.745C576.335 177.457 576.312 177.292 576.15 177.433C576.08 177.527 575.941 178.185 575.849 178.937C575.386 182.624 574.923 185.701 574.807 186.077C574.691 186.453 574.854 186.5 576.08 186.5H577.492V185.678ZM585.593 172.407H587.19C588.648 172.407 588.787 172.454 588.879 172.947C589.157 174.215 591.888 184.738 591.981 184.832C592.027 184.879 592.073 182.107 592.073 178.678V172.407H595.082V194.016H593.462C591.888 194.016 591.842 193.993 591.703 193.382C591.634 193.006 591.518 192.56 591.449 192.372C591.379 192.184 591.194 191.432 591.032 190.728C590.361 187.745 588.995 182.601 588.81 182.272C588.694 182.06 588.602 184.409 588.602 187.98V194.016H585.593V172.407ZM602.026 175.225H598.785V172.407H608.275V175.225H605.266V194.016H602.026V175.225ZM385.712 171.138L385.226 170.88L385.782 169.987C386.684 168.531 387.726 168.367 389.763 169.377C390.92 169.94 391.105 169.94 391.452 169.353C391.823 168.766 392.054 168.766 392.771 169.33L393.35 169.776L392.517 170.622C391.498 171.655 390.712 171.725 389.23 170.88C388.652 170.551 388.027 170.293 387.842 170.293C387.633 170.293 387.309 170.551 387.101 170.88C386.684 171.514 386.453 171.561 385.712 171.138ZM495.096 170.481C495.35 170.058 495.697 169.471 495.836 169.189C496.045 168.742 496.276 168.648 497.225 168.648C497.827 168.648 498.336 168.695 498.336 168.766C498.336 168.836 497.85 169.424 497.271 170.058C496.369 171.021 496.045 171.232 495.397 171.232H494.587L495.096 170.481ZM353.564 167.662C353.217 167.145 353.217 167.122 353.841 167.051C354.189 167.004 354.513 167.075 354.559 167.216C354.605 167.357 354.79 167.474 354.976 167.474C355.184 167.474 355.3 167.216 355.3 166.652V165.83L354.351 165.971L353.402 166.135L353.564 165.407C353.703 164.749 353.656 164.655 353.055 164.538C351.249 164.115 350.347 163.317 349.768 161.625C349.606 161.085 349.513 158.29 349.513 153.216C349.513 145.982 349.537 145.583 349.999 144.573C350.763 142.905 352.268 142.106 354.466 142.13C356.11 142.13 357.545 142.764 358.401 143.821C359.072 144.667 359.119 144.854 359.188 147.18L359.281 149.623H355.994V147.767C355.994 146.381 355.901 145.794 355.624 145.536C355.207 145.089 353.656 145.042 353.263 145.442C353.055 145.653 352.985 147.744 352.985 153.404C352.985 161.461 352.985 161.484 354.027 161.602C355.647 161.79 355.994 161.344 355.994 159.112V157.374H359.281L359.188 159.676C359.119 160.921 358.957 162.213 358.795 162.541C358.401 163.364 357.128 164.186 355.901 164.468C355.346 164.585 354.814 164.843 354.744 165.055C354.628 165.337 354.721 165.384 355.091 165.29C355.994 165.055 356.457 165.501 356.457 166.605C356.457 167.873 356.156 168.179 354.929 168.179C354.166 168.179 353.841 168.061 353.564 167.662ZM573.326 167.779C572.053 167.591 571.752 167.451 571.197 166.887C570.873 166.558 570.525 165.924 570.456 165.478C570.34 164.843 570.155 164.632 569.669 164.514C567.841 164.115 566.822 163.223 566.382 161.649C566.244 161.132 566.151 157.703 566.151 153.216C566.151 146.311 566.197 145.583 566.591 144.62C567.517 142.459 570.41 141.496 573.118 142.459C574.391 142.928 574.9 143.398 575.432 144.573C575.826 145.418 575.872 146.24 575.872 153.381C575.872 162.283 575.826 162.659 574.252 163.786C573.766 164.139 573.095 164.421 572.77 164.421C572.423 164.421 572.169 164.561 572.169 164.726C572.169 165.055 574.02 165.595 575.201 165.595C575.849 165.595 575.872 165.618 575.872 166.769V167.944L574.9 167.92C574.344 167.897 573.65 167.85 573.326 167.779ZM572.238 161.179C572.585 160.85 572.632 160.193 572.632 153.428C572.632 146.875 572.585 145.958 572.238 145.583C571.775 145.042 570.387 145.019 569.808 145.559C569.414 145.911 569.391 146.475 569.391 153.381C569.391 160.169 569.438 160.85 569.808 161.179C570.549 161.86 571.451 161.86 572.238 161.179ZM301.163 164.421C300.099 164.162 299.289 163.504 298.733 162.401C298.27 161.531 298.247 161.062 298.178 152.042L298.108 142.576H301.372V151.596C301.372 159.84 301.395 160.662 301.788 161.109C302.228 161.696 303.316 161.813 304.103 161.391L304.612 161.109V142.576H307.852V151.972C307.852 162.424 307.829 162.659 306.348 163.669C305.052 164.585 303.038 164.867 301.163 164.421ZM378.537 164.444C377.38 164.139 376.431 163.458 375.922 162.541C375.459 161.696 375.436 161.344 375.436 153.404C375.436 144.549 375.436 144.479 376.639 143.351C378.56 141.543 382.819 141.801 384.3 143.821C385.018 144.761 385.134 146.17 385.134 153.381C385.134 157.069 385.041 160.592 384.948 161.203C384.601 163.34 383.328 164.35 380.805 164.538C379.949 164.585 378.931 164.561 378.537 164.444ZM381.569 161.062C382.102 160.287 382.078 146.428 381.546 145.677C381.06 144.972 379.278 144.925 378.908 145.606C378.63 146.146 378.584 160.615 378.861 161.062C379.37 161.86 381.014 161.86 381.569 161.062ZM494.887 164.444C493.869 164.162 493.013 163.504 492.434 162.518C491.994 161.766 491.971 161.226 491.902 154.673C491.809 146.593 491.902 145.019 492.619 143.962C493.684 142.365 496.484 141.684 498.729 142.435C500.118 142.905 500.975 143.774 501.322 145.042C501.669 146.311 501.669 160.451 501.322 161.719C501.044 162.776 500.396 163.598 499.424 164.115C498.637 164.514 495.975 164.726 494.887 164.444ZM498.151 161.062C498.243 160.897 498.336 157.468 498.336 153.404C498.336 145.089 498.359 145.16 496.693 145.16C495.119 145.16 495.096 145.254 495.096 153.263C495.096 157.139 495.165 160.545 495.235 160.85C495.489 161.79 497.595 161.931 498.151 161.062ZM556.777 164.444C555.689 164.162 555.111 163.763 554.416 162.87C553.838 162.095 553.768 161.79 553.699 159.699L553.606 157.374H556.893V159.089C556.893 161.085 557.286 161.696 558.536 161.649C559.809 161.625 560.133 161.062 560.133 158.948C560.133 157.397 560.041 156.975 559.624 156.364C558.999 155.495 557.796 154.367 556.8 153.757C555.666 153.076 554.416 151.596 554 150.468C553.676 149.646 553.63 148.871 553.699 147.062C553.768 144.854 553.838 144.667 554.486 143.821C556.06 141.871 559.578 141.519 561.823 143.116C562.864 143.844 563.374 145.348 563.374 147.65V149.623H560.133V147.791C560.133 145.653 559.832 145.16 558.467 145.16C557.24 145.16 556.893 145.7 556.893 147.673C556.893 149.27 556.916 149.364 557.819 150.398C558.328 150.985 559.138 151.713 559.624 151.995C561.013 152.841 562.772 154.814 563.096 155.871C563.235 156.411 563.374 157.797 563.374 158.948C563.374 161.86 562.772 163.293 561.221 164.115C560.457 164.514 557.772 164.726 556.777 164.444ZM581.982 164.444C580.894 164.162 579.899 163.481 579.436 162.682C579.02 162.001 578.996 161.273 578.927 152.277L578.858 142.576H582.121V151.69C582.121 156.693 582.214 160.897 582.306 161.062C582.561 161.484 583.556 161.766 584.204 161.602C585.315 161.32 585.361 160.944 585.361 151.455V142.576H588.37V152.3C588.37 161.978 588.37 162.001 587.838 162.776C587.56 163.223 587.005 163.763 586.588 163.998C585.778 164.491 583.139 164.749 581.982 164.444ZM601.447 164.444C599.063 163.81 598.346 162.635 598.323 159.441V157.374H601.285L601.378 159.136C601.47 161.179 601.794 161.649 603.044 161.649C604.41 161.649 604.572 161.367 604.572 158.877C604.572 156.716 604.549 156.646 603.831 155.824C603.415 155.377 602.35 154.461 601.447 153.78C600.568 153.099 599.526 152.112 599.156 151.549C598.485 150.586 598.438 150.374 598.369 147.978C598.253 144.854 598.67 143.704 600.197 142.834C601.378 142.153 603.553 141.918 604.873 142.365C607.233 143.116 607.812 144.126 607.812 147.391V149.623H604.572V147.673C604.572 146.475 604.456 145.606 604.294 145.442C603.877 145.019 602.142 145.089 601.771 145.536C601.609 145.747 601.424 146.522 601.378 147.274C601.285 148.448 601.378 148.824 601.864 149.67C602.466 150.68 602.952 151.126 605.104 152.653C605.752 153.122 606.609 153.968 607.002 154.508C607.673 155.495 607.696 155.636 607.766 158.548C607.835 161.203 607.789 161.649 607.372 162.494C606.701 163.833 605.636 164.421 603.715 164.538C602.859 164.585 601.841 164.561 601.447 164.444ZM287.253 142.576H295.817V145.395H290.262V151.972H295.122V155.025H290.262V164.421H287.253V142.576ZM311.093 142.553L314.425 142.694L314.958 144.808C315.259 145.982 315.93 148.613 316.462 150.68C316.971 152.747 317.481 154.602 317.596 154.79C317.712 155.002 317.805 152.441 317.805 148.871V142.576H320.814V164.421H317.596L317.365 163.551C317.249 163.058 316.902 161.813 316.647 160.78C316.37 159.746 315.999 158.267 315.814 157.491C315.374 155.471 314.541 152.347 314.425 152.23C314.379 152.183 314.333 154.884 314.333 158.266V164.421H311.093V142.553ZM324.054 142.576H327.387C330.951 142.576 331.854 142.787 332.78 143.798C333.057 144.079 333.381 144.643 333.52 144.995C333.798 145.724 333.89 160.052 333.613 161.367C333.543 161.79 333.08 162.541 332.617 163.011C331.553 164.092 330.118 164.421 326.553 164.421H324.054V142.576ZM330.118 160.968C330.511 160.615 330.534 160.075 330.534 153.428C330.534 145.113 330.604 145.395 328.521 145.395H327.294V161.367H328.498C329.285 161.367 329.84 161.226 330.118 160.968ZM335.95 163.669C336.043 163.246 336.251 161.79 336.436 160.427C336.83 157.585 337.108 155.73 337.478 153.733C337.617 152.958 337.871 151.431 338.057 150.327C338.242 149.223 338.473 147.744 338.612 147.039C338.913 145.301 339.052 144.502 339.214 143.469L339.353 142.576H343.889L344.144 143.915C344.56 146.146 344.653 146.593 344.977 148.801C345.301 150.774 345.509 152.019 346.042 154.908C346.157 155.565 346.412 157.256 346.62 158.713C346.805 160.146 346.991 161.578 347.06 161.884C347.129 162.189 347.222 162.87 347.291 163.434L347.43 164.421H344.213L344.097 163.669C344.028 163.246 343.843 162.119 343.704 161.203L343.426 159.488H339.839L339.7 160.498C339.607 161.038 339.422 162.142 339.306 162.964L339.052 164.421H335.811L335.95 163.669ZM342.94 155.565C342.686 153.663 342.315 151.196 342.084 150.022C341.968 149.411 341.875 148.566 341.875 148.143C341.852 146.875 341.436 147.955 341.181 149.905C341.065 150.844 340.857 152.3 340.718 153.146C340.579 153.992 340.417 155.119 340.348 155.683L340.186 156.669H343.079L342.94 155.565ZM361.664 163.551C361.734 163.058 361.896 162.025 362.012 161.25C362.151 160.474 362.359 158.995 362.475 157.961C362.613 156.928 362.822 155.565 362.937 154.908C363.424 152.277 363.678 150.821 363.979 148.918C364.164 147.814 364.419 146.287 364.558 145.512C364.697 144.737 364.882 143.751 364.951 143.351L365.09 142.576H369.626L369.765 143.469C369.858 143.938 370.02 144.878 370.136 145.512C370.251 146.17 370.552 148.002 370.83 149.623C371.085 151.243 371.385 153.099 371.501 153.733C371.617 154.391 371.987 156.716 372.311 158.901C372.612 161.109 372.936 163.246 373.029 163.669L373.191 164.421H369.927L369.673 162.964C369.557 162.142 369.372 161.038 369.279 160.498L369.14 159.488H365.553L365.275 161.203C365.136 162.119 364.951 163.246 364.882 163.669L364.766 164.421H361.526L361.664 163.551ZM368.631 155.683C368.562 155.119 368.4 153.992 368.261 153.146C368.122 152.3 367.914 150.844 367.798 149.905C367.543 147.931 367.127 146.875 367.104 148.166C367.104 148.589 367.011 149.388 366.895 149.928C366.71 150.821 366.525 152.089 366.039 155.565L365.9 156.669H368.793L368.631 155.683ZM394.415 142.576H397.724C401.682 142.576 402.654 142.905 403.418 144.432C403.881 145.324 403.904 145.771 403.904 153.404C403.904 161.109 403.881 161.461 403.418 162.307C402.539 163.88 400.849 164.421 396.845 164.421H394.415V142.576ZM400.34 161.038C400.757 160.709 400.78 160.357 400.78 153.381C400.78 145.042 400.872 145.395 398.766 145.395H397.655V161.367H398.766C399.391 161.367 400.085 161.226 400.34 161.038ZM407.145 142.576H415.94V145.395H410.385V151.972H415.245V155.025H410.385V161.367H415.94V164.421H407.145V142.576ZM423.67 164.021C423.763 163.786 423.925 162.87 424.04 161.954C424.295 160.193 424.55 158.478 425.059 155.143C425.383 153.146 425.545 152.23 426.147 148.988C426.262 148.237 426.517 146.687 426.702 145.512C427.165 142.365 426.957 142.576 429.572 142.576H431.817L432.118 144.502C432.488 146.968 432.743 148.425 433.067 150.21C433.298 151.525 433.715 154.039 434.224 157.256C434.548 159.183 434.895 161.696 435.081 163.199L435.219 164.421H431.933L431.794 163.082C431.701 162.33 431.563 161.25 431.47 160.662L431.331 159.605L429.618 159.535C428.669 159.488 427.813 159.558 427.72 159.652C427.605 159.77 427.396 160.874 427.258 162.142L426.98 164.421H425.244C423.716 164.421 423.554 164.374 423.67 164.021ZM430.891 156.246C430.752 155.824 430.452 153.686 430.035 150.445C429.919 149.411 429.757 148.307 429.665 147.978L429.526 147.391L429.341 148.096C429.132 148.801 428.461 153.475 428.276 155.565L428.16 156.669H429.595C430.845 156.669 431.007 156.622 430.891 156.246ZM437.465 142.576H439.085C441.029 142.576 440.705 142.012 442.325 148.213C443.505 152.7 443.829 153.851 444.2 155.025C444.292 155.354 444.454 155.965 444.524 156.364C444.616 156.787 444.755 157.186 444.848 157.256C444.964 157.303 445.311 156.34 445.658 155.072C445.982 153.827 446.352 152.488 446.468 152.089C446.584 151.713 446.954 150.28 447.301 148.918C447.671 147.556 448.181 145.606 448.458 144.573L448.968 142.694L452.277 142.553V164.421H449.268V158.454C449.268 155.166 449.176 152.418 449.06 152.347C448.944 152.277 448.806 152.512 448.736 152.864C448.551 153.851 447.672 157.632 447.44 158.431C447.324 158.83 446.931 160.333 446.607 161.79L445.982 164.421H444.987C444.177 164.421 443.945 164.327 443.829 163.951C443.737 163.692 443.066 160.991 442.325 157.938C441.584 154.884 440.913 152.324 440.844 152.253C440.774 152.183 440.705 154.884 440.705 158.266V164.421H437.465V142.576ZM455.749 142.576H458.851C462.924 142.576 463.804 142.928 464.66 144.995C465.192 146.311 465.146 151.079 464.544 152.371C463.919 153.804 462.554 154.555 460.1 154.908L458.989 155.049V164.421H455.749V142.576ZM461.258 151.502C461.721 151.055 461.767 150.774 461.767 148.566C461.767 146.311 461.721 146.099 461.258 145.771C460.98 145.559 460.355 145.395 459.869 145.395H458.989V151.972H459.869C460.448 151.972 460.934 151.807 461.258 151.502ZM465.771 163.317C465.864 162.682 466.026 161.508 466.164 160.662C466.303 159.817 466.488 158.454 466.627 157.609C466.882 155.8 467.437 152.394 467.761 150.562C467.9 149.858 468.247 147.791 468.548 145.982L469.081 142.694L473.802 142.553V143.163C473.802 143.492 473.895 144.22 474.011 144.761C474.126 145.301 474.335 146.334 474.45 147.039C474.589 147.744 474.798 148.965 474.936 149.74C475.839 154.767 477.019 162.682 477.043 163.786C477.043 164.421 477.043 164.421 475.469 164.421H473.895L473.617 162.166C473.455 160.921 473.27 159.817 473.2 159.699C472.992 159.37 469.636 159.441 469.544 159.793C469.474 159.934 469.312 161.062 469.15 162.26L468.849 164.421H465.632L465.771 163.317ZM472.738 155.918C472.668 155.495 472.529 154.555 472.414 153.851C472.298 153.146 472.066 151.619 471.927 150.445C471.789 149.294 471.58 148.119 471.488 147.861C471.349 147.438 471.303 147.485 471.187 148.096C471.094 148.495 470.886 150.186 470.678 151.854C470.469 153.545 470.215 155.307 470.099 155.8L469.914 156.669H472.876L472.738 155.918ZM479.589 142.576H482.69C487.99 142.576 488.847 143.422 488.847 148.566C488.847 151.784 488.476 152.817 487.018 153.663L486.139 154.179L487.064 156.528C487.55 157.844 488.199 159.582 488.499 160.427C488.777 161.273 489.24 162.518 489.518 163.199L490.004 164.421H488.198L486.416 164.397L485.56 161.649C485.074 160.146 484.38 157.961 484.009 156.787C483.662 155.636 483.245 154.649 483.083 154.602C482.898 154.532 482.829 155.894 482.829 159.464V164.421H479.589V142.576ZM485.143 151.502C485.537 151.102 485.606 150.727 485.606 148.589C485.606 146.311 485.56 146.099 485.097 145.771C484.819 145.559 484.194 145.395 483.708 145.395H482.829V151.972H483.755C484.38 151.972 484.842 151.807 485.143 151.502ZM510.001 164.233C510.047 164.139 510.279 162.823 510.464 161.344C510.881 158.36 511.158 156.528 511.529 154.438C511.668 153.663 511.945 152.089 512.13 150.915C512.894 146.24 513.38 143.445 513.519 142.975C513.635 142.6 513.913 142.576 515.88 142.623L518.102 142.694L518.287 143.516C518.356 143.962 518.68 145.771 518.958 147.509C519.236 149.247 519.537 151.102 519.629 151.619C519.954 153.428 521.134 161.062 521.342 162.706C521.412 163.246 521.55 163.833 521.62 164.045C521.736 164.374 521.527 164.421 520.139 164.421C519.236 164.421 518.449 164.327 518.38 164.233C518.31 164.115 518.171 163.199 518.032 162.166C517.685 159.347 517.778 159.464 515.718 159.535L513.959 159.605L513.774 161.015C513.681 161.79 513.519 162.847 513.427 163.364L513.265 164.303L511.575 164.374C510.626 164.421 509.932 164.35 510.001 164.233ZM516.991 155.096C516.898 154.203 516.736 152.911 516.621 152.206C516.505 151.502 516.297 150.139 516.158 149.2C515.996 148.26 515.834 147.532 515.764 147.603C515.672 147.697 515.394 149.388 514.769 153.968C514.653 154.884 514.468 155.847 514.399 156.153C514.26 156.646 514.306 156.669 515.695 156.669H517.153L516.991 155.096ZM530.276 142.576H533.54C536.479 142.576 536.896 142.623 537.706 143.093C538.215 143.375 538.84 143.985 539.118 144.432C539.58 145.183 539.627 145.606 539.65 148.589C539.65 151.878 539.65 151.901 538.979 152.77C538.053 154.015 537.15 154.485 535.206 154.814L533.517 155.096V164.421H530.276V142.576ZM535.947 151.384C536.479 150.868 536.525 150.633 536.525 148.801C536.525 145.958 536.178 145.395 534.512 145.395H533.517V151.972H534.442C535.137 151.972 535.53 151.807 535.947 151.384ZM542.312 142.576H551.107V145.395H545.552V151.972H550.412V155.025H545.552V161.367H551.107V164.421H542.312V142.576ZM591.842 142.576H595.082V164.421H591.842V142.576ZM609.988 164.021C610.057 163.786 610.265 162.377 610.474 160.897C610.659 159.417 610.937 157.562 611.052 156.787C611.33 155.189 611.585 153.71 612.071 150.68C612.279 149.529 612.534 147.978 612.649 147.274C612.788 146.569 613.02 145.207 613.159 144.291L613.413 142.576H617.95L618.112 143.234C618.204 143.586 618.413 144.761 618.575 145.865C618.875 147.744 619.037 148.636 619.639 151.925C620.079 154.438 621.421 163.457 621.468 164.256C621.468 164.35 620.75 164.421 619.871 164.421H618.274L618.112 163.199C618.042 162.518 617.857 161.39 617.741 160.709L617.487 159.464L613.946 159.605L613.76 160.78C613.645 161.437 613.459 162.518 613.344 163.199L613.112 164.421H611.492C610.057 164.421 609.872 164.374 609.988 164.021ZM617.07 156.223C617.07 155.965 616.862 154.367 616.607 152.629C616.353 150.915 616.075 149.059 615.982 148.495C615.774 147.039 615.543 147.532 615.218 150.092C614.918 152.512 614.64 154.391 614.385 155.8L614.223 156.669H615.658C616.885 156.669 617.07 156.622 617.07 156.223ZM363.979 141.355C363.724 141.214 363.493 141.073 363.447 141.026C363.262 140.885 364.141 139.546 364.65 139.194C365.46 138.677 366.132 138.724 367.682 139.429L368.978 140.039L369.534 139.523C370.066 139.006 370.112 139.006 370.691 139.382C371.362 139.828 371.223 140.321 370.205 141.143C369.418 141.777 368.886 141.754 367.381 141.049C365.831 140.321 365.576 140.321 365.113 141.049C364.697 141.707 364.627 141.73 363.979 141.355ZM513.311 140.251C512.709 139.617 512.223 139.029 512.223 138.959C512.223 138.888 512.709 138.818 513.334 138.818C514.121 138.818 514.491 138.935 514.676 139.241C514.792 139.452 515.139 140.039 515.44 140.533L515.973 141.402H515.162C514.538 141.402 514.19 141.19 513.311 140.251Z" fill="white"/>
</svg>
